<?xml version="1.0" encoding="UTF-8" standalone="no"?>
<!-- Created with Inkscape (http://www.inkscape.org/) -->

<svg
   width="135.79309mm"
   height="45.262192mm"
   viewBox="0 0 135.79309 45.262192"
   version="1.1"
   id="svg1"
   xml:space="preserve"
   xmlns="http://www.w3.org/2000/svg"
   xmlns:svg="http://www.w3.org/2000/svg"><defs
     id="defs1" /><g
     id="layer1"
     transform="translate(-5.2916661,-197.92429)"><g
       id="g7-3-2"
       transform="matrix(1.0058263,0,0,1.0058263,-3.4350823,197.92428)">
	<g
   id="g2-5-6"
   transform="translate(26.305071)"
   style="fill:#f9f9f9">
		<path
   class="st0"
   d="M 78.2,33.5 C 78.1,33.5 78,33.4 78,33.3 V 16.1 h -6.4 c -0.1,0 -0.2,-0.1 -0.2,-0.2 v -2.7 c 0,-0.1 0.1,-0.2 0.2,-0.2 h 16.9 c 0.1,0 0.2,0.1 0.2,0.2 v 2.7 c 0,0.1 -0.1,0.2 -0.2,0.2 H 82 v 17.2 c 0,0.1 -0.1,0.2 -0.2,0.2 z"
   id="path1-6-9"
   style="fill:#f9f9f9" />
	</g>
	<g
   id="g6"
   transform="translate(47.349127)">
		<path
   class="st1"
   d="m 35.5,0 c 5.7,0 9.1,4.6 10.4,13.8 0,0.6 0.1,1.7 0.2,3.3 0,8.8 -3,16.7 -9,23.7 -2.8,2.8 -5.6,4.2 -8.4,4.2 -4.3,0 -7.6,-3.2 -10,-9.7 -0.7,-2.2 -1.1,-4.7 -1.1,-7.5 0,-7.8 2.3,-15.3 7,-22.5 h 0.2 v 0.3 c -1.3,2.2 -2.1,4.1 -2.6,5.7 v 0.2 h 0.2 C 26.3,3.9 30.7,0 35.5,0 Z M 21.4,28.9 c 0,7.7 2.6,12.3 7.9,13.7 h 0.9 c 1.1,0 2,-0.4 2.5,-1.1 h -1.4 c -4,0 -6.5,-3.3 -7.7,-9.8 h 0.3 c 1.6,5.1 3.9,7.6 6.9,7.6 4.7,0 8.3,-4.5 11.1,-13.5 C 42.6,22.9 43,20 43,17.2 v -0.5 c 0,-1.9 -0.2,-4 -0.7,-6.4 H 42 v 0.2 c 0.1,1 0.2,1.8 0.2,2.4 v 0.4 c 0,3.9 -0.6,6.5 -1.8,8 V 21.1 C 41,19 41.3,17 41.3,15.2 41.3,9.7 39.7,5.9 36.5,3.9 L 34.8,3.7 c -4.7,0 -8.7,5.2 -12,15.6 -0.9,3.7 -1.4,6.9 -1.4,9.6 z"
   id="path2-2-1"
   style="fill:#36c0f1" />
	</g>
	
	<g
   id="g4-1-0"
   transform="translate(3.6827101)"
   style="fill:#f9f9f9">
		<path
   class="st0"
   d="m 137.1,14.8 c 0,0 0,0 0,0 v -1.3 h -0.4 c 0,0 0,0 0,0 v -0.3 c 0,0 0,0 0,0 h 1.2 c 0,0 0,0 0,0 v 0.3 c 0,0 0,0 0,0 h -0.4 v 1.3 c 0,0 0,0 0,0 z m 2.6,0 c 0,0 0,0 0,0 v -1.2 c -0.1,0.2 -0.2,0.4 -0.2,0.6 0,0.2 -0.2,0.4 -0.2,0.6 0,0 0,0 0,0 H 139 c 0,0 0,0 0,0 l -0.5,-1.2 v 1.2 c 0,0 0,0 0,0 h -0.3 c 0,0 0,0 0,0 v -1.6 c 0,0 0,0 0,0 h 0.5 c 0,0 0,0 0,0 0,0 0,0 0,0 l 0.4,1.1 c 0,-0.1 0.1,-0.2 0.1,-0.3 0,-0.1 0.1,-0.2 0.1,-0.3 0,-0.1 0.1,-0.2 0.1,-0.3 0,-0.1 0.1,-0.2 0.1,-0.3 0,0 0,0 0,0 0,0 0,0 0,0 h 0.5 c 0,0 0,0 0,0 v 1.6 c 0,0 0,0 0,0 h -0.3 z"
   id="path4-2-4"
   style="fill:#f9f9f9" />
	</g>
	<g
   id="g5-7-2"
   transform="translate(47.349127)"
   style="fill:#f9f9f9">
		<path
   class="st0"
   d="M 0,33.5 V 13 h 6.4 c 2.6,0 4.6,0.6 5.8,1.7 1.3,1.1 1.9,2.7 1.9,4.7 0,1.2 -0.2,2.3 -0.7,3.4 -0.5,1.1 -1.3,1.9 -2.5,2.6 -1.2,0.7 -2.7,1 -4.7,1 H 4.4 v 7.3 H 0 Z M 4.4,22.6 H 5.9 C 7.1,22.6 8,22.4 8.7,21.9 9.4,21.4 9.8,20.6 9.8,19.4 9.8,18.5 9.5,17.8 9,17.3 8.4,16.8 7.6,16.5 6.4,16.5 h -2 z"
   id="path5-0-7"
   style="fill:#f9f9f9" />
	</g>
	
	<path
   class="st0"
   d="m 131.20505,13.3 h -3.4 l -7.79999,20.1 h 4.19999 l 1.1,-3 v 0 l 1,-3 h 5.5 l 1,2.7 1.3,3.2 h 4.9 z m -0.1,11.8 -0.3,-0.7 z m -2.6,-3.8 c 0.2,-0.7 0.4,-1.4 0.6,-2 h 0.2 c 0.2,1 0.4,1.7 0.7,2.3 0.2,0.6 0.4,1.1 0.6,1.6 l 0.4,1.1 h -3.4 l 0.3,-0.9 c 0.1,-0.6 0.4,-1.3 0.6,-2.1 z"
   id="path7-3-4"
   style="fill:#f9f9f9" />
<text
   xml:space="preserve"
   style="font-weight:bold;font-stretch:expanded;font-size:13.473px;font-family:'D-DIN Exp';-inkscape-font-specification:'D-DIN Exp, Bold Expanded';text-align:start;writing-mode:lr-tb;direction:ltr;text-anchor:start;fill:#f9f9f9;fill-opacity:1;stroke-width:1.33391;stroke-linecap:round;stroke-linejoin:round;paint-order:stroke fill markers"
   x="7.6894069"
   y="28.553682"
   id="text1-0"><tspan
     style="font-style:normal;font-variant:normal;font-weight:bold;font-stretch:normal;font-size:13.473px;font-family:Pigiarniq;-inkscape-font-specification:'Pigiarniq, Bold';font-variant-ligatures:normal;font-variant-caps:normal;font-variant-numeric:normal;font-variant-east-asian:normal;fill:#f9f9f9;fill-opacity:1;stroke-width:1.33391"
     x="7.6894069"
     y="28.553682"
     id="tspan3-3">MUSI</tspan></text></g></g><style
     type="text/css"
     id="style1">
	.st0{fill:#58595B;}
	.st1{fill:#36C0F1;}
</style></svg>
