<?xml version="1.0" encoding="UTF-8" standalone="no"?>
<!-- Created with Inkscape (http://www.inkscape.org/) -->

<svg
   width="141.08324mm"
   height="41.074219mm"
   viewBox="0 0 141.08324 41.074219"
   version="1.1"
   id="svg1"
   xmlns="http://www.w3.org/2000/svg"
   xmlns:svg="http://www.w3.org/2000/svg">
  <defs
     id="defs1" />
  <g
     id="layer1"
     transform="translate(-3.1805099,-150.12124)">
    <g
       id="g5-7-1"
       transform="translate(4.1459804,157.8953)">
      <rect
         x="125.73367"
         y="-7.6551528"
         fill="#119bcf"
         width="0.37745628"
         height="40.843513"
         id="rect1-0-6"
         style="stroke-width:0.135824" />
      <g
         id="g40-6-5"
         transform="matrix(0.0359369,0,0,0.0359369,21.226883,19.005958)"
         style="fill:#f9f9f9">
        <path
           id="path36-2-7"
           d="m 2069.413,-424.421 h -10.22 v 32.434 h -10.209 v -32.434 h -10.231 v -9.089 h 30.65 z"
           style="fill:#f9f9f9" />
        <path
           id="path38-1-8"
           d="m 2114.069,-391.987 h -10.198 v -19.866 l -5.902,10.239 h -6.507 l -5.898,-10.239 v 19.866 h -10.202 v -41.523 h 10.006 l 9.32,18.322 9.349,-18.322 h 10.025 z"
           style="fill:#f9f9f9" />
      </g>
      <g
         id="g48-9-5"
         transform="matrix(0.0359369,0,0,0.0359369,25.046919,19.005958)"
         style="fill:#f9f9f9">
        <g
           id="g46-6-9"
           style="fill:#f9f9f9">
          <path
             id="path42-4-2"
             d="m 2285.123,104.206 0.369,-80.795 211.901,-205.398 0.225,-0.175 c 21.404,-17.798 37.327,-33.811 47.333,-47.634 9.405,-13 14.177,-26.435 14.177,-39.956 0,-19.387 -6.186,-34.442 -18.898,-46.024 -12.741,-11.604 -29.934,-17.484 -51.072,-17.484 -20.374,0 -37.087,5.664 -51.083,17.29 -13.579,11.276 -20.182,28.053 -20.182,51.278 v 7.445 h -131.87 v -7.445 c 0,-37.011 9.047,-69.967 26.903,-97.96 17.82,-27.942 42.59,-49.673 73.638,-64.581 30.779,-14.773 65.289,-22.253 102.601,-22.253 28.236,0 54.844,4.11 79.104,12.213 24.408,8.155 46.022,20.136 64.248,35.595 18.366,15.581 32.853,34.771 43.062,57.036 10.246,22.242 15.421,46.864 15.421,73.186 0,22.232 -5.09,43.225 -15.148,62.373 -9.829,18.717 -23.434,37.063 -40.416,54.51 -16.683,17.152 -37.363,36.138 -61.447,56.442 l -100.73,86.117 h 229.592 V 104.218 H 2285.12 v -0.012 z"
             style="fill:#f9f9f9" />
          <path
             id="path44-8-7"
             d="m 2489.173,-442.04 c 27.568,0 53.157,3.953 76.746,11.833 23.6,7.888 44.199,19.276 61.79,34.213 17.591,14.919 31.307,33.056 41.114,54.465 9.822,21.389 14.742,44.76 14.742,70.082 0,21.114 -4.765,40.768 -14.295,58.919 -9.526,18.158 -22.566,35.752 -39.146,52.79 -16.558,17.023 -36.862,35.669 -60.904,55.936 l -116.107,99.236 h 242.303 V 96.776 h -402.815 l 0.325,-70.202 209.45,-203 c 21.99,-18.292 38.19,-34.628 48.595,-48.992 10.405,-14.352 15.613,-29.129 15.613,-44.325 0,-21.407 -7.109,-38.572 -21.326,-51.533 -14.218,-12.931 -32.92,-19.429 -56.084,-19.429 -21.972,0 -40.597,6.335 -55.844,19.012 -15.247,12.673 -22.865,31.672 -22.865,57.001 h -116.977 c 0,-35.756 8.585,-67.059 25.741,-93.964 17.145,-26.885 40.682,-47.501 70.575,-61.864 29.898,-14.35 63.028,-21.52 99.369,-21.52 m 0,-14.889 c -38.427,0 -74.033,7.738 -105.827,22.993 -32.311,15.515 -58.11,38.157 -76.69,67.286 -18.628,29.216 -28.059,63.521 -28.059,101.964 v 14.889 h 14.889 116.977 14.885 v -14.889 c 0,-20.869 5.721,-35.769 17.488,-45.552 12.616,-10.475 27.763,-15.578 46.329,-15.578 19.496,0 34.566,5.086 46.07,15.556 11.062,10.089 16.447,23.343 16.447,40.517 0,12.084 -4.182,23.716 -12.785,35.584 -9.63,13.315 -25.128,28.88 -46.048,46.277 l -0.439,0.362 -0.406,0.388 -209.443,203.014 -4.499,4.359 -0.033,6.275 -0.317,70.194 -0.074,14.967 h 14.963 402.834 14.889 V 96.787 -4.551 -19.44 h -14.889 -201.976 l 85.442,-73.025 c 24.194,-20.393 45.048,-39.567 61.908,-56.881 17.477,-17.975 31.506,-36.902 41.664,-56.254 10.626,-20.221 16.008,-42.368 16.008,-65.837 0,-27.396 -5.415,-53.063 -16.1,-76.303 -10.648,-23.26 -25.803,-43.317 -45.004,-59.601 -18.931,-16.081 -41.394,-28.522 -66.703,-36.974 -25.059,-8.371 -52.468,-12.614 -81.501,-12.614 z"
             style="fill:#f9f9f9" />
        </g>
      </g>
      <g
         id="g1177-0-3"
         transform="matrix(0.09584305,0,0,0.09584305,34.17276,1.0220935)">
        <g
           id="g1165-8-6">
          <g
             id="g1163-1-4">
            <g
               id="g71-0-7"
               transform="matrix(0.37331822,0,0,0.37331822,-37.620101,209.6563)">
              <g
                 id="g2-2-9">
                <path
                   id="path65_1_-2-7"
                   fill="#119bcf"
                   d="m 2990.923,-564.448 c 0,64.423 -52.226,116.64 -116.638,116.64 -64.419,0 -116.641,-52.217 -116.641,-116.64 0,-64.413 52.222,-116.636 116.641,-116.636 64.412,0 116.638,52.222 116.638,116.636" />
                <path
                   fill="#119bcf"
                   d="m 2874.285,-444.486 c -66.15,0 -119.967,-53.815 -119.967,-119.963 0,-66.146 53.817,-119.959 119.967,-119.959 66.146,0 119.959,53.813 119.959,119.959 0,66.149 -53.812,119.963 -119.959,119.963 z m 0,-233.275 c -62.484,0 -113.32,50.832 -113.32,113.312 0,62.482 50.836,113.316 113.32,113.316 62.484,0 113.312,-50.834 113.312,-113.316 0,-62.48 -50.828,-113.312 -113.312,-113.312 z"
                   id="path1-9-2" />
              </g>
              <g
                 id="g3-7-2">
                <path
                   id="path67_1_-5-1"
                   fill="#119bcf"
                   d="m 2681.195,-541.147 201.575,153.581 c 0,0 7.025,3.859 8.119,20.209 l 31.615,140.586 132.942,98.08 c 0,0 21.631,70.788 -51.437,63.74 l -137.083,-101.891 c 0,0 -8.4,-6.421 -14.176,-25.068 l -26.15,-113.333 -147.125,173.281 134.031,184.171 c 0,0 29.442,40.326 -3.251,74.109 l -136.23,132.956 V 120.873 l 31.6,-26.165 c 0,0 8.727,-6.536 0,-16.334 l -31.6,-39.236 v -579.772 l 7.17,-0.517" />
                <path
                   fill="#119bcf"
                   d="M 2670.7,267.16 V 119.309 l 32.804,-27.158 c 0.126,-0.096 2.406,-1.909 2.655,-4.678 0.189,-2.113 -0.827,-4.43 -3.014,-6.888 L 2670.7,40.31 v -584.035 l 10.258,-0.74 0.237,3.318 2.017,-2.643 201.431,153.474 c 1.635,1.031 8.389,6.235 9.546,22.478 l 31.288,139.129 132.827,97.994 0.319,1.053 c 0.415,1.361 9.998,33.564 -6.358,53.576 -9.613,11.766 -25.95,16.626 -48.574,14.443 l -0.923,-0.089 -0.741,-0.552 -137.083,-101.891 c -0.411,-0.315 -9.346,-7.31 -15.366,-26.747 l -24.727,-107.123 -141.149,166.245 132.49,182.054 c 0.311,0.423 30.695,42.992 -3.548,78.38 z m 6.647,-144.722 v 128.949 l 130.588,-127.444 c 30.328,-31.344 3.166,-69.39 2.888,-69.776 L 2677.347,-129.24 V 37.963 l 30.869,38.324 c 3.388,3.804 4.956,7.852 4.549,11.911 -0.56,5.587 -4.678,8.819 -5.146,9.172 z M 3005.24,-68.176 c 19.781,1.746 33.861,-2.321 41.865,-12.096 12.634,-15.436 6.862,-41.016 5.442,-46.428 l -133.012,-98.132 -0.271,-1.208 -31.689,-141.095 c -0.934,-13.932 -6.432,-17.527 -6.484,-17.563 l -0.337,-0.224 -200.578,-152.821 -2.829,0.202 v 402.953 l 151.003,-177.848 27.64,119.779 c 5.257,16.956 12.897,23.129 12.975,23.192 z"
                   id="path2-6-6" />
              </g>
              <g
                 id="g4-4-3">
                <path
                   id="path69_1_-6-0"
                   fill="#119bcf"
                   d="m 2658.945,337.199 h 21.083 V -804.119 h -21.083 z" />
                <path
                   fill="#119bcf"
                   d="m 2683.353,340.525 h -27.729 V -807.442 h 27.729 z m -21.083,-6.647 h 14.436 V -800.795 h -14.436 z"
                   id="path3-3-2" />
              </g>
            </g>
          </g>
        </g>
      </g>
      <path
         d="M 9.0162207,12.186035 H 6.8865769 L 4.0416323,18.167871 1.1641732,12.186035 H -0.96547037 V 23.019283 H 1.1641732 v -6.468546 l 2.1621577,4.380402 h 1.4306012 l 2.1296448,-4.333304 v 6.421448 h 2.1296438 z"
         id="text23-1"
         style="font-weight:bold;font-size:39.701px;font-family:D-DIN;-inkscape-font-specification:'D-DIN, Bold';fill:#f9f9f9;stroke-width:1.58174;stroke-linecap:round;stroke-linejoin:round;paint-order:stroke fill markers"
         aria-label="M" />
      <path
         d="m 12.885352,22.563978 c 0.617759,0.314007 1.300545,0.455305 2.064616,0.455305 0.764071,0 1.446858,-0.141298 2.064617,-0.455305 0.617759,-0.314007 1.089207,-0.737921 1.446858,-1.303133 0.35765,-0.565211 0.536475,-1.193226 0.536475,-1.915441 v -7.25357 h -2.145901 v 7.190767 c 0,0.628015 -0.178825,1.099026 -0.520218,1.444431 -0.341394,0.345411 -0.796585,0.502415 -1.381831,0.502415 -0.585245,0 -1.056694,-0.157004 -1.38183,-0.502415 -0.341393,-0.345405 -0.503962,-0.816416 -0.503962,-1.444431 v -7.190767 h -2.129644 v 7.25357 c 0,0.722215 0.162568,1.35023 0.520219,1.915441 0.341393,0.565212 0.812841,0.989126 1.430601,1.303133 z"
         id="text22-5"
         style="font-weight:bold;font-size:39.701px;font-family:D-DIN;-inkscape-font-specification:'D-DIN, Bold';fill:#f9f9f9;stroke-width:1.58174;stroke-linecap:round;stroke-linejoin:round;paint-order:stroke fill markers"
         aria-label="U" />
      <path
         d="m 21.485216,22.155763 c 0.666531,0.580917 1.609427,0.86352 2.812432,0.86352 1.219262,0 2.194671,-0.282603 2.909972,-0.86352 0.7153,-0.565211 1.089207,-1.397327 1.089207,-2.496352 0,-1.695641 -0.97541,-2.700466 -2.893715,-3.045871 l -1.186748,-0.204107 c -0.536475,-0.0942 -0.926639,-0.251205 -1.170492,-0.471011 -0.260109,-0.219806 -0.373907,-0.518108 -0.373907,-0.894917 0,-0.423914 0.130055,-0.753621 0.422678,-1.004825 0.276366,-0.251205 0.699043,-0.37681 1.251776,-0.37681 0.536475,0 0.942895,0.125605 1.235519,0.361111 0.276365,0.251204 0.438934,0.628014 0.471448,1.146122 h 2.04836 c -0.09754,-1.020523 -0.455192,-1.82124 -1.105465,-2.386451 -0.650272,-0.565212 -1.511884,-0.847821 -2.617349,-0.847821 -1.137977,0 -2.064617,0.298308 -2.747403,0.879219 -0.682787,0.596616 -1.024181,1.381633 -1.024181,2.386458 0,1.695635 1.007924,2.700459 3.040027,3.014467 l 1.056694,0.172702 c 0.520219,0.09421 0.894126,0.251211 1.137977,0.471011 0.227596,0.219806 0.357651,0.549512 0.357651,0.973426 0,0.957721 -0.601502,1.428731 -1.804508,1.428731 -0.634016,0 -1.105464,-0.1099 -1.430601,-0.36111 -0.325136,-0.251205 -0.520218,-0.675112 -0.585245,-1.271729 h -2.015847 c 0.06503,1.099026 0.438935,1.946846 1.12172,2.527757 z"
         id="text21-6"
         style="font-weight:bold;font-size:39.701px;font-family:D-DIN;-inkscape-font-specification:'D-DIN, Bold';fill:#f9f9f9;stroke-width:1.58174;stroke-linecap:round;stroke-linejoin:round;paint-order:stroke fill markers"
         aria-label="S" />
      <path
         d="m 29.922515,12.186035 v 10.833248 h 2.129644 V 12.186035 Z"
         id="text20-5"
         style="font-weight:bold;font-size:39.701px;font-family:D-DIN;-inkscape-font-specification:'D-DIN, Bold';fill:#f9f9f9;stroke-width:1.58174;stroke-linecap:round;stroke-linejoin:round;paint-order:stroke fill markers"
         aria-label="I" />
      <path
         d="M 47.89732,5.2188523 C 46.730778,4.1485757 45.126781,3.5852726 43.085337,3.5852726 H 35.56116 V 23.019283 h 3.820415 v -7.379292 h 3.703762 c 2.041444,0 3.645441,-0.535135 4.811983,-1.605418 1.166534,-1.070277 1.778969,-2.534868 1.778969,-4.3374439 0,-1.8870723 -0.612435,-3.3798317 -1.778969,-4.4782768 z m -2.828861,6.4780097 c -0.524941,0.478805 -1.254035,0.704131 -2.158102,0.704131 H 39.381575 V 6.7961097 h 3.528782 c 0.933232,0 1.633161,0.2534868 2.158102,0.7604603 0.524942,0.5069736 0.787416,1.2111043 0.787416,2.1405591 0,0.8731199 -0.262474,1.5490889 -0.787416,1.9997329 z"
         id="text19-0"
         style="font-weight:bold;font-size:39.701px;font-family:D-DIN;-inkscape-font-specification:'D-DIN, Bold';fill:#f9f9f9;stroke-width:2.83752;stroke-linecap:round;stroke-linejoin:round;paint-order:stroke fill markers"
         aria-label="P" />
      <path
         d="m 51.542724,15.273838 c 0,5.182409 2.391405,7.745445 7.20338,7.745445 2.245589,0 4.024566,-0.591472 5.366081,-1.802576 1.341522,-1.211104 2.012287,-3.182676 2.012287,-5.942869 v -4.450103 c 0,-2.7320302 -0.670765,-4.7035948 -1.953958,-5.914699 -1.312357,-1.2111043 -3.091327,-1.8307442 -5.307751,-1.8307442 -4.899469,0 -7.320039,2.5912045 -7.320039,7.7454432 z m 9.915589,3.379833 c -0.583271,0.732292 -1.429016,1.070277 -2.59555,1.070277 -1.224871,0 -2.128938,-0.337985 -2.65388,-1.042116 -0.554106,-0.70413 -0.81658,-1.858905 -0.81658,-3.464324 v -4.196615 c 0,-1.689917 0.262474,-2.8728586 0.81658,-3.6051505 0.524942,-0.7322992 1.429009,-1.0984451 2.65388,-1.0984451 1.166534,0 2.012279,0.3943143 2.59555,1.1266062 0.554106,0.7322992 0.845738,1.943402 0.845738,3.5769894 v 4.196615 c 0,1.577258 -0.291632,2.703864 -0.845738,3.436163 z"
         id="text18-0"
         style="font-weight:bold;font-size:39.701px;font-family:D-DIN;-inkscape-font-specification:'D-DIN, Bold';fill:#f9f9f9;stroke-width:2.83752;stroke-linecap:round;stroke-linejoin:round;paint-order:stroke fill markers"
         aria-label="O" />
      <path
         d="M 80.997838,6.7961097 V 3.5852726 H 66.882716 v 3.2108371 h 5.132765 V 23.019283 h 3.849578 V 6.7961097 Z"
         id="text17-3"
         style="font-weight:bold;font-size:39.701px;font-family:D-DIN;-inkscape-font-specification:'D-DIN, Bold';fill:#f9f9f9;stroke-width:2.83752;stroke-linecap:round;stroke-linejoin:round;paint-order:stroke fill markers"
         aria-label="T" />
      <path
         d="m 91.642513,19.245143 1.224864,3.77414 h 4.053731 L 89.746892,3.5852726 H 86.626393 L 79.481335,23.019283 h 4.024567 l 1.224863,-3.77414 z m -1.020718,-3.07001 h -4.870304 l 2.42057,-7.4637883 z"
         id="text16-4"
         style="font-weight:bold;font-size:39.701px;font-family:D-DIN;-inkscape-font-specification:'D-DIN, Bold';fill:#f9f9f9;stroke-width:2.83752;stroke-linecap:round;stroke-linejoin:round;paint-order:stroke fill markers"
         aria-label="A" />
      <path
         d="m 104.02458,5.9449099 h 1.37222 V 4.856601 h -1.23026 l 0.29573,-2.2712548 h -1.21843 L 102.9481,4.856601 h -1.3249 l 0.29574,-2.2712548 h -1.21843 l -0.29574,2.2712548 h -1.372216 v 1.0883089 h 1.230256 l -0.17744,1.3012396 h -1.384036 v 1.0883103 h 1.242088 l -0.319396,2.4132082 h 1.218434 l 0.31939,-2.4132082 h 1.3249 l -0.3194,2.4132082 h 1.23027 l 0.31939,-2.4132082 h 1.34856 V 7.2461495 h -1.2066 z m -1.21843,0 -0.17745,1.3012396 h -1.32489 l 0.17743,-1.3012396 z"
         id="text33-6"
         style="font-weight:bold;font-stretch:expanded;font-size:10.7868px;font-family:'D-DIN Exp';-inkscape-font-specification:'D-DIN Exp, Bold Expanded';fill:#f9f9f9;stroke-width:1.17119;stroke-linecap:round;stroke-linejoin:round;paint-order:stroke fill markers"
         aria-label="#" />
    </g>
  </g>
</svg>
