<?xml version="1.0" encoding="UTF-8" standalone="no"?>
<!-- Created with Inkscape (http://www.inkscape.org/) -->

<svg
   width="125.3685mm"
   height="24.255545mm"
   viewBox="0 0 125.3685 24.255545"
   version="1.1"
   id="svg1"
   xml:space="preserve"
   xmlns="http://www.w3.org/2000/svg"
   xmlns:svg="http://www.w3.org/2000/svg"><defs
     id="defs1" /><g
     id="layer1"
     transform="translate(-122.49406,-115.0719)"><g
       id="g49"><path
         style="font-size:23.2309px;font-family:'linja pona 4.9';-inkscape-font-specification:'linja pona 4.9, Normal';fill:#58595b;fill-opacity:1;stroke:#58595b;stroke-width:1.5;stroke-linecap:round;stroke-linejoin:round;stroke-dasharray:none;stroke-opacity:1;paint-order:stroke fill markers"
         d="m 239.93422,138.28618 h 2.74124 c 2.43925,0 4.43711,-1.99786 4.43711,-4.4371 v -13.56685 c 0,-2.43924 -1.99786,-4.46033 -4.43711,-4.46033 h -2.74124 v 1.18477 h 2.74124 c 1.81201,0 3.27556,1.46355 3.27556,3.27556 v 13.56685 c 0,1.81201 -1.46355,3.27555 -3.27556,3.27555 h -2.74124 z"
         id="path48-4" /><path
         style="font-size:23.2309px;font-family:'linja pona 4.9';-inkscape-font-specification:'linja pona 4.9, Normal';fill:#58595b;fill-opacity:1;stroke:#58595b;stroke-width:1.5;stroke-linecap:round;stroke-linejoin:round;stroke-dasharray:none;stroke-opacity:1;paint-order:stroke fill markers"
         d="m 229.39236,128.64535 c 0,0.76662 0.65047,1.44032 1.41709,1.44032 0.76662,0 1.41708,-0.6737 1.41708,-1.44032 0,-0.76662 -0.65046,-1.41708 -1.41708,-1.41708 -0.76662,0 -1.41709,0.65046 -1.41709,1.41708 z"
         id="path47-5" /><path
         style="font-size:23.2309px;font-family:'linja pona 4.9';-inkscape-font-specification:'linja pona 4.9, Normal';fill:#58595b;fill-opacity:1;stroke:#58595b;stroke-width:1.5;stroke-linecap:round;stroke-linejoin:round;stroke-dasharray:none;stroke-opacity:1;paint-order:stroke fill markers"
         d="m 220.73221,135.38231 v -1.16154 h -2.97356 l -5.13403,-15.37886 -8.2005,14.79809 3.97248,1.69585 0.46462,-1.06862 -2.78771,-1.18477 6.29557,-11.35991 4.55326,13.65976 z"
         id="path46-8" /><path
         style="font-size:23.2309px;font-family:'linja pona 4.9';-inkscape-font-specification:'linja pona 4.9, Normal';fill:#58595b;fill-opacity:1;stroke:#58595b;stroke-width:1.5;stroke-linecap:round;stroke-linejoin:round;stroke-dasharray:none;stroke-opacity:1;paint-order:stroke fill markers"
         d="m 194.71857,119.79438 h -1.16154 v 8.61866 h -11.40637 v -8.61866 h -1.16155 v 15.58793 h 13.72946 z m -12.56791,14.42639 v -4.64618 h 11.40637 v 4.64618 z"
         id="path45-5" /><path
         style="font-size:23.2309px;font-family:'linja pona 4.9';-inkscape-font-specification:'linja pona 4.9, Normal';fill:#58595b;fill-opacity:1;stroke:#58595b;stroke-width:1.5;stroke-linecap:round;stroke-linejoin:round;stroke-dasharray:none;stroke-opacity:1;paint-order:stroke fill markers"
         d="m 149.42828,138.28618 v -1.16155 h -3.39171 c -1.81201,0 -3.29879,-1.46354 -3.29879,-3.27555 v -13.56685 c 0,-1.81201 1.48678,-3.27556 3.29879,-3.27556 h 3.39171 v -1.18477 h -3.39171 c -2.43924,0 -4.46033,2.02109 -4.46033,4.46033 v 13.56685 c 0,2.46247 1.99786,4.4371 4.46033,4.4371 z"
         id="path43-7" /><path
         style="font-size:23.2309px;font-family:'linja pona 4.9';-inkscape-font-specification:'linja pona 4.9, Normal';fill:#58595b;fill-opacity:1;stroke:#58595b;stroke-width:0.802731;stroke-linecap:round;stroke-linejoin:round;stroke-dasharray:none;stroke-opacity:1;paint-order:stroke fill markers"
         d="m 133.86055,127.06636 c 0.20513,0 0.39161,-0.0186 0.57809,-0.0559 0.20513,0.52214 0.31702,1.08159 0.31702,1.65969 0,2.61073 -2.20048,4.62474 -4.77393,4.62474 -2.57344,0 -4.79258,-1.99536 -4.79258,-4.62474 0,-0.5781 0.1119,-1.13755 0.31702,-1.65969 0.18649,0.0373 0.37296,0.0559 0.57809,0.0559 1.75293,0 3.18884,-1.37997 3.18884,-3.0956 0,-1.71562 -1.43591,-3.11424 -3.18884,-3.11424 -1.75292,0 -3.18883,1.39862 -3.18883,3.11424 0,1.19349 0.70863,2.23778 1.73428,2.75993 -0.24243,0.61539 -0.37296,1.26807 -0.37296,1.93941 0,3.11425 2.64803,5.55715 5.72498,5.55715 3.07695,0 5.70634,-2.42426 5.70634,-5.55715 0,-0.67134 -0.13054,-1.32402 -0.37297,-1.93941 1.02565,-0.52215 1.73428,-1.56644 1.73428,-2.75993 0,-1.71562 -1.43591,-3.11424 -3.18883,-3.11424 -1.75293,0 -3.18883,1.39862 -3.18883,3.11424 0,1.71563 1.4359,3.0956 3.18883,3.0956 z m 0,-5.27743 c 1.24942,0 2.25643,0.98835 2.25643,2.18183 0,1.19349 -1.00701,2.16319 -2.25643,2.16319 -1.24943,0 -2.25643,-0.9697 -2.25643,-2.16319 0,-1.19348 1.007,-2.18183 2.25643,-2.18183 z m -7.77629,0 c 1.24944,0 2.25643,0.98835 2.25643,2.18183 0,1.19349 -1.00699,2.16319 -2.25643,2.16319 -1.24942,0 -2.25642,-0.9697 -2.25642,-2.16319 0,-1.19348 1.007,-2.18183 2.25642,-2.18183 z"
         id="text43-3" /><g
         id="g6-4-3"
         transform="matrix(0.52380277,0,0,0.52380277,146.53933,115.75632)">
		<path
   class="st1"
   d="m 35.5,0 c 5.7,0 9.1,4.6 10.4,13.8 0,0.6 0.1,1.7 0.2,3.3 0,8.8 -3,16.7 -9,23.7 -2.8,2.8 -5.6,4.2 -8.4,4.2 -4.3,0 -7.6,-3.2 -10,-9.7 -0.7,-2.2 -1.1,-4.7 -1.1,-7.5 0,-7.8 2.3,-15.3 7,-22.5 h 0.2 v 0.3 c -1.3,2.2 -2.1,4.1 -2.6,5.7 v 0.2 h 0.2 C 26.3,3.9 30.7,0 35.5,0 Z M 21.4,28.9 c 0,7.7 2.6,12.3 7.9,13.7 h 0.9 c 1.1,0 2,-0.4 2.5,-1.1 h -1.4 c -4,0 -6.5,-3.3 -7.7,-9.8 h 0.3 c 1.6,5.1 3.9,7.6 6.9,7.6 4.7,0 8.3,-4.5 11.1,-13.5 C 42.6,22.9 43,20 43,17.2 v -0.5 c 0,-1.9 -0.2,-4 -0.7,-6.4 H 42 v 0.2 c 0.1,1 0.2,1.8 0.2,2.4 v 0.4 c 0,3.9 -0.6,6.5 -1.8,8 V 21.1 C 41,19 41.3,17 41.3,15.2 41.3,9.7 39.7,5.9 36.5,3.9 L 34.8,3.7 c -4.7,0 -8.7,5.2 -12,15.6 -0.9,3.7 -1.4,6.9 -1.4,9.6 z"
   id="path2-2-1-3-8"
   style="fill:#36c0f1" />
	</g></g></g><style
     type="text/css"
     id="style1">
	.st0{fill:#58595B;}
	.st1{fill:#36C0F1;}
</style></svg>
