<?xml version="1.0" encoding="UTF-8" standalone="no"?>
<!-- Created with Inkscape (http://www.inkscape.org/) -->

<svg
   width="130.16856mm"
   height="41.074207mm"
   viewBox="0 0 130.16856 41.074207"
   version="1.1"
   id="svg1"
   xmlns="http://www.w3.org/2000/svg"
   xmlns:svg="http://www.w3.org/2000/svg">
  <defs
     id="defs1" />
  <g
     id="layer1"
     transform="translate(-13.825102,-195.79168)">
    <g
       id="g5-7-5"
       transform="translate(3.8758861,203.56571)">
      <rect
         x="125.73367"
         y="-7.6551528"
         fill="#119bcf"
         width="0.37745628"
         height="40.843513"
         id="rect1-0-3"
         style="stroke-width:0.135824" />
      <g
         id="g1177-0-9"
         transform="matrix(0.09584305,0,0,0.09584305,34.17276,1.0220935)">
        <g
           id="g1165-8-3">
          <g
             id="g1163-1-6">
            <g
               id="g71-0-0"
               transform="matrix(0.37331822,0,0,0.37331822,-37.620101,209.6563)">
              <g
                 id="g2-2-6">
                <path
                   id="path65_1_-2-2"
                   fill="#119bcf"
                   d="m 2990.923,-564.448 c 0,64.423 -52.226,116.64 -116.638,116.64 -64.419,0 -116.641,-52.217 -116.641,-116.64 0,-64.413 52.222,-116.636 116.641,-116.636 64.412,0 116.638,52.222 116.638,116.636" />
                <path
                   fill="#119bcf"
                   d="m 2874.285,-444.486 c -66.15,0 -119.967,-53.815 -119.967,-119.963 0,-66.146 53.817,-119.959 119.967,-119.959 66.146,0 119.959,53.813 119.959,119.959 0,66.149 -53.812,119.963 -119.959,119.963 z m 0,-233.275 c -62.484,0 -113.32,50.832 -113.32,113.312 0,62.482 50.836,113.316 113.32,113.316 62.484,0 113.312,-50.834 113.312,-113.316 0,-62.48 -50.828,-113.312 -113.312,-113.312 z"
                   id="path1-9-6" />
              </g>
              <g
                 id="g3-7-1">
                <path
                   id="path67_1_-5-8"
                   fill="#119bcf"
                   d="m 2681.195,-541.147 201.575,153.581 c 0,0 7.025,3.859 8.119,20.209 l 31.615,140.586 132.942,98.08 c 0,0 21.631,70.788 -51.437,63.74 l -137.083,-101.891 c 0,0 -8.4,-6.421 -14.176,-25.068 l -26.15,-113.333 -147.125,173.281 134.031,184.171 c 0,0 29.442,40.326 -3.251,74.109 l -136.23,132.956 V 120.873 l 31.6,-26.165 c 0,0 8.727,-6.536 0,-16.334 l -31.6,-39.236 v -579.772 l 7.17,-0.517" />
                <path
                   fill="#119bcf"
                   d="M 2670.7,267.16 V 119.309 l 32.804,-27.158 c 0.126,-0.096 2.406,-1.909 2.655,-4.678 0.189,-2.113 -0.827,-4.43 -3.014,-6.888 L 2670.7,40.31 v -584.035 l 10.258,-0.74 0.237,3.318 2.017,-2.643 201.431,153.474 c 1.635,1.031 8.389,6.235 9.546,22.478 l 31.288,139.129 132.827,97.994 0.319,1.053 c 0.415,1.361 9.998,33.564 -6.358,53.576 -9.613,11.766 -25.95,16.626 -48.574,14.443 l -0.923,-0.089 -0.741,-0.552 -137.083,-101.891 c -0.411,-0.315 -9.346,-7.31 -15.366,-26.747 l -24.727,-107.123 -141.149,166.245 132.49,182.054 c 0.311,0.423 30.695,42.992 -3.548,78.38 z m 6.647,-144.722 v 128.949 l 130.588,-127.444 c 30.328,-31.344 3.166,-69.39 2.888,-69.776 L 2677.347,-129.24 V 37.963 l 30.869,38.324 c 3.388,3.804 4.956,7.852 4.549,11.911 -0.56,5.587 -4.678,8.819 -5.146,9.172 z M 3005.24,-68.176 c 19.781,1.746 33.861,-2.321 41.865,-12.096 12.634,-15.436 6.862,-41.016 5.442,-46.428 l -133.012,-98.132 -0.271,-1.208 -31.689,-141.095 c -0.934,-13.932 -6.432,-17.527 -6.484,-17.563 l -0.337,-0.224 -200.578,-152.821 -2.829,0.202 v 402.953 l 151.003,-177.848 27.64,119.779 c 5.257,16.956 12.897,23.129 12.975,23.192 z"
                   id="path2-6-7" />
              </g>
              <g
                 id="g4-4-9">
                <path
                   id="path69_1_-6-2"
                   fill="#119bcf"
                   d="m 2658.945,337.199 h 21.083 V -804.119 h -21.083 z" />
                <path
                   fill="#119bcf"
                   d="m 2683.353,340.525 h -27.729 V -807.442 h 27.729 z m -21.083,-6.647 h 14.436 V -800.795 h -14.436 z"
                   id="path3-3-0" />
              </g>
            </g>
          </g>
        </g>
      </g>
      <g
         id="g299"
         transform="translate(1.6338973,-41.255589)">
        <g
           id="path75"
           transform="translate(-8.9044089,0.63602921)">
          <path
             style="-inkscape-font-specification:'linja pona 4.9, Normal';stroke-linecap:round;stroke-linejoin:round;paint-order:stroke fill markers"
             d="m 126.88086,41.550781 a 0.83002802,0.83002802 0 0 0 -0.83008,0.830078 v 22.365235 a 0.83002802,0.83002802 0 0 0 0.83008,0.830078 h 1.67578 a 0.83002802,0.83002802 0 0 0 0.83008,-0.830078 V 42.380859 a 0.83002802,0.83002802 0 0 0 -0.83008,-0.830078 z m 0.83008,1.660156 h 0.0156 v 20.705079 h -0.0156 z"
             id="path76" />
          <path
             style="-inkscape-font-specification:'linja pona 4.9, Normal';stroke-linecap:round;stroke-linejoin:round;paint-order:stroke fill markers"
             d="M 128.55688,64.745871 V 42.380545 h -1.67657 v 22.365326 z"
             id="path77" />
        </g>
        <g
           id="path74"
           transform="translate(-8.9044089,0.63602921)">
          <path
             style="-inkscape-font-specification:'linja pona 4.9, Normal';stroke-linecap:round;stroke-linejoin:round;paint-order:stroke fill markers"
             d="m 117.12305,41.550781 a 0.83002802,0.83002802 0 0 0 -0.83008,0.830078 v 22.365235 a 0.83002802,0.83002802 0 0 0 0.83008,0.830078 h 1.67578 a 0.83002802,0.83002802 0 0 0 0.83008,-0.830078 V 42.380859 a 0.83002802,0.83002802 0 0 0 -0.83008,-0.830078 z m 0.83008,1.660156 h 0.0156 v 20.705079 h -0.0156 z"
             id="path78" />
          <path
             style="-inkscape-font-specification:'linja pona 4.9, Normal';stroke-linecap:round;stroke-linejoin:round;paint-order:stroke fill markers"
             d="M 118.79929,64.745871 V 42.380545 h -1.67657 v 22.365326 z"
             id="path79" />
        </g>
        <g
           id="path73"
           transform="translate(-8.9641156,0.63602921)">
          <path
             style="-inkscape-font-specification:'linja pona 4.9, Normal';stroke-linecap:round;stroke-linejoin:round;paint-order:stroke fill markers"
             d="m 105.52565,41.992187 a 0.38868887,0.38868887 0 0 0 -0.38867,0.388672 v 2.169922 h -2.48437 a 0.38868887,0.38868887 0 0 0 -0.38867,0.388672 v 0.785156 a 0.38868887,0.38868887 0 0 0 0.38867,0.388672 h 2.48437 v 2.69336 h -2.48437 a 0.38868887,0.38868887 0 0 0 -0.38867,0.388671 v 0.785157 a 0.38868887,0.38868887 0 0 0 0.38867,0.388672 h 2.48437 v 2.484375 a 0.38868887,0.38868887 0 0 0 0.38867,0.388671 h 0.78516 a 0.38868887,0.38868887 0 0 0 0.38867,-0.388671 v -2.484375 h 3.00782 v 2.484375 a 0.38868887,0.38868887 0 0 0 0.38867,0.388671 h 0.78515 a 0.38868887,0.38868887 0 0 0 0.38868,-0.388671 v -2.484375 h 2.5 a 0.38868887,0.38868887 0 0 0 0.38867,-0.388672 v -0.785157 a 0.38868887,0.38868887 0 0 0 -0.38867,-0.388671 h -2.5 v -2.69336 h 2.5 a 0.38868887,0.38868887 0 0 0 0.38867,-0.388672 v -0.785156 a 0.38868887,0.38868887 0 0 0 -0.38867,-0.388672 h -2.5 v -2.169922 a 0.38868887,0.38868887 0 0 0 -0.38868,-0.388672 h -0.78515 a 0.38868887,0.38868887 0 0 0 -0.38867,0.388672 v 2.169922 h -3.00782 v -2.169922 a 0.38868887,0.38868887 0 0 0 -0.38867,-0.388672 z m 0.38868,0.777344 h 0.008 v 2.169922 a 0.38868887,0.38868887 0 0 0 0.38867,0.388672 h 3.78516 a 0.38868887,0.38868887 0 0 0 0.38867,-0.388672 v -2.169922 h 0.008 v 2.169922 a 0.38868887,0.38868887 0 0 0 0.38867,0.388672 h 2.5 v 0.0078 h -2.5 a 0.38868887,0.38868887 0 0 0 -0.38867,0.388672 V 49.1953 a 0.38868887,0.38868887 0 0 0 0.38867,0.388672 h 2.5 v 0.0078 h -2.5 a 0.38868887,0.38868887 0 0 0 -0.38867,0.388672 v 2.484375 h -0.008 v -2.484375 a 0.38868887,0.38868887 0 0 0 -0.38867,-0.388672 H 106.311 a 0.38868887,0.38868887 0 0 0 -0.38867,0.388672 v 2.484375 h -0.008 v -2.484375 a 0.38868887,0.38868887 0 0 0 -0.38868,-0.388672 h -2.48437 v -0.0078 h 2.48437 a 0.38868887,0.38868887 0 0 0 0.38868,-0.388672 v -3.470703 a 0.38868887,0.38868887 0 0 0 -0.38868,-0.388672 h -2.48437 v -0.0078 h 2.48437 a 0.38868887,0.38868887 0 0 0 0.38868,-0.388672 z m 0.39648,2.566406 a 0.38868887,0.38868887 0 0 0 -0.38867,0.388672 v 3.470703 a 0.38868887,0.38868887 0 0 0 0.38867,0.388672 h 3.78516 a 0.38868887,0.38868887 0 0 0 0.38867,-0.388672 v -3.470703 a 0.38868887,0.38868887 0 0 0 -0.38867,-0.388672 z m 0.38867,0.777344 h 3.00782 v 2.69336 h -3.00782 z"
             id="path80" />
          <path
             style="-inkscape-font-specification:'linja pona 4.9, Normal';stroke-linecap:round;stroke-linejoin:round;paint-order:stroke fill markers"
             d="m 113.76961,49.195256 h -2.88919 v -3.470164 h 2.88919 v -0.785105 h -2.88919 v -2.559442 h -0.7851 v 2.559442 h -3.78421 v -2.559442 h -0.7851 v 2.559442 h -2.87349 v 0.785105 h 2.87349 v 3.470164 h -2.87349 v 0.785104 h 2.87349 v 2.873484 h 0.7851 V 49.98036 h 3.78421 v 2.873484 h 0.7851 V 49.98036 h 2.88919 z m -7.4585,-3.470164 h 3.78421 v 3.470164 h -3.78421 z"
             id="path81" />
        </g>
        <g
           id="path72"
           transform="translate(-9.9627422,0.63602921)">
          <path
             style="-inkscape-font-specification:'linja pona 4.9, Normal';stroke-linecap:round;stroke-linejoin:round;paint-order:stroke fill markers"
             d="m 93.314453,41.267578 a 0.57505749,0.57505749 0 0 0 -0.574219,0.576172 v 1.183594 a 0.57505749,0.57505749 0 0 0 0.574219,0.576172 h 2.742188 c 1.502394,0 2.699218,1.196824 2.699218,2.699218 v 13.56836 c 0,1.502394 -1.196824,2.699219 -2.699218,2.699218 h -2.742188 a 0.57505749,0.57505749 0 0 0 -0.574219,0.576172 v 1.160157 a 0.57505749,0.57505749 0 0 0 0.574219,0.576171 h 2.742188 c 2.753212,0 5.011719,-2.258506 5.011719,-5.011718 v -13.56836 c 0,-2.753212 -2.254856,-5.035156 -5.011719,-5.035156 z m 0.576172,1.150391 h 2.166016 c 2.121624,0 3.861328,1.75949 3.861328,3.884765 v 13.56836 c 0,2.125276 -1.736053,3.861328 -3.861328,3.861328 h -2.166016 v -0.01172 h 2.166016 c 2.121625,0 3.849609,-1.727984 3.849609,-3.849609 v -13.56836 c 0,-2.121625 -1.727984,-3.849609 -3.849609,-3.849609 h -2.166016 z"
             id="path82" />
          <path
             style="-inkscape-font-specification:'linja pona 4.9, Normal';stroke-linecap:round;stroke-linejoin:round;paint-order:stroke fill markers"
             d="m 93.314773,64.3075 h 2.741246 c 2.439244,0 4.437101,-1.997858 4.437101,-4.437102 V 46.303552 c 0,-2.439244 -1.997857,-4.460333 -4.437101,-4.460333 h -2.741246 v 1.184776 h 2.741246 c 1.81201,0 3.275557,1.463547 3.275557,3.275557 v 13.566846 c 0,1.81201 -1.463547,3.275557 -3.275557,3.275557 h -2.741246 z"
             id="path83" />
        </g>
        <g
           id="path71"
           transform="translate(-9.9627422,0.63602921)">
          <path
             style="-inkscape-font-specification:'linja pona 4.9, Normal';stroke-linecap:round;stroke-linejoin:round;paint-order:stroke fill markers"
             d="m 89.482422,52.673828 c -1.091872,0 -1.992188,0.900315 -1.992188,1.992188 0,1.091872 0.888699,2.015625 1.992188,2.015625 1.103488,0 1.992187,-0.923753 1.992187,-2.015625 0,-1.091873 -0.900315,-1.992188 -1.992187,-1.992188 z m 0,1.150391 c 0.441368,0 0.841797,0.400429 0.841797,0.841797 0,0.441367 -0.412046,0.865234 -0.841797,0.865234 -0.429752,0 -0.84375,-0.423867 -0.84375,-0.865234 0,-0.441368 0.402382,-0.841797 0.84375,-0.841797 z"
             id="path84" />
          <path
             style="-inkscape-font-specification:'linja pona 4.9, Normal';stroke-linecap:round;stroke-linejoin:round;paint-order:stroke fill markers"
             d="m 88.064585,54.666676 c 0,0.76662 0.650465,1.440316 1.417085,1.440316 0.76662,0 1.417085,-0.673696 1.417085,-1.440316 0,-0.76662 -0.650465,-1.417085 -1.417085,-1.417085 -0.76662,0 -1.417085,0.650465 -1.417085,1.417085 z"
             id="path85" />
        </g>
        <g
           id="path70"
           transform="translate(-9.9627422,0.63602921)">
          <path
             style="-inkscape-font-specification:'linja pona 4.9, Normal';stroke-linecap:round;stroke-linejoin:round;paint-order:stroke fill markers"
             d="m 76.548828,44.291016 a 0.57505749,0.57505749 0 0 0 -0.556641,0.292968 l -8.199218,14.798828 a 0.57505749,0.57505749 0 0 0 0.277343,0.806641 l 3.970704,1.697266 a 0.57505749,0.57505749 0 0 0 0.753906,-0.300782 l 0.464844,-1.068359 a 0.57505749,0.57505749 0 0 0 -0.302735,-0.757812 l -2.199219,-0.935547 5.351563,-9.658203 4.138672,12.419921 a 0.57505749,0.57505749 0 0 0 0.544922,0.392579 h 3.810547 a 0.57505749,0.57505749 0 0 0 0.574218,-0.574219 v -1.16211 A 0.57505749,0.57505749 0 0 0 84.603516,59.667969 H 82.042969 L 77.041016,44.681641 a 0.57505749,0.57505749 0 0 0 -0.492188,-0.390625 z m -0.185547,1.996093 4.720703,14.136719 a 0.57505749,0.57505749 0 0 0 0.544922,0.392578 h 2.398438 v 0.01172 H 81.207031 L 76.785156,47.5625 a 0.57505749,0.57505749 0 0 0 -1.048828,-0.09766 l -6.294922,11.359375 a 0.57505749,0.57505749 0 0 0 0.277344,0.808593 l 2.255859,0.958985 -0.0059,0.01172 -2.861328,-1.220704 z"
             id="path86" />
          <path
             style="-inkscape-font-specification:'linja pona 4.9, Normal';stroke-linecap:round;stroke-linejoin:round;paint-order:stroke fill markers"
             d="M 84.603184,61.403637 V 60.242092 H 81.629629 L 76.4956,44.863236 68.295093,59.66132 l 3.972484,1.695855 0.464618,-1.068621 -2.787708,-1.184776 6.295573,-11.35991 4.553257,13.659769 z"
             id="path87" />
        </g>
        <g
           id="path69"
           transform="translate(-9.9627422,0.63602921)">
          <path
             style="-inkscape-font-specification:'linja pona 4.9, Normal';stroke-linecap:round;stroke-linejoin:round;paint-order:stroke fill markers"
             d="m 62.859375,52.673828 c -1.091872,0 -1.992188,0.900315 -1.992188,1.992188 0,1.091872 0.8887,2.015625 1.992188,2.015625 1.103488,0 1.992187,-0.923753 1.992187,-2.015625 0,-1.091873 -0.900315,-1.992188 -1.992187,-1.992188 z m 0,1.150391 c 0.441366,0 0.841797,0.400429 0.841797,0.841797 0,0.441367 -0.412047,0.865234 -0.841797,0.865234 -0.429752,0 -0.841797,-0.423867 -0.841797,-0.865234 0,-0.441368 0.400429,-0.841797 0.841797,-0.841797 z"
             id="path88" />
          <path
             style="-inkscape-font-specification:'linja pona 4.9, Normal';stroke-linecap:round;stroke-linejoin:round;paint-order:stroke fill markers"
             d="m 61.441977,54.666676 c 0,0.76662 0.650465,1.440316 1.417085,1.440316 0.766619,0 1.417085,-0.673696 1.417085,-1.440316 0,-0.76662 -0.650466,-1.417085 -1.417085,-1.417085 -0.76662,0 -1.417085,0.650465 -1.417085,1.417085 z"
             id="path89" />
        </g>
        <g
           id="path68"
           transform="translate(-9.9627422,0.63602921)">
          <path
             style="-inkscape-font-specification:'linja pona 4.9, Normal';stroke-linecap:round;stroke-linejoin:round;paint-order:stroke fill markers"
             d="m 40.953125,48.144531 a 0.57505749,0.57505749 0 0 0 -0.576172,0.574219 c 0,2.637602 0.876246,5.318546 2.486328,7.371094 1.610082,2.052547 3.991402,3.472656 6.894531,3.472656 2.960976,0 5.214211,-1.527581 6.685547,-3.244141 a 0.57505749,0.57505749 0 0 0 0,-0.002 c 1.551341,-1.822211 2.669922,-4.441998 2.669922,-7.597656 a 0.57505749,0.57505749 0 0 0 -0.574219,-0.574219 h -1.138671 a 0.57505749,0.57505749 0 0 0 -0.576172,0.574219 c 0,4.75522 -3.234357,8.533203 -7.066407,8.533203 -3.832049,0 -7.091796,-3.779758 -7.091796,-8.533203 a 0.57505749,0.57505749 0 0 0 -0.576172,-0.574219 z m 0.841797,2.197266 c 0.09954,0.659469 0.127715,1.346572 0.335937,1.955078 -0.213508,-0.629937 -0.236004,-1.29692 -0.335937,-1.955078 z m 15.503906,2.18164 c -0.428585,1.187417 -1.025363,2.220609 -1.730469,3.048829 -0.680379,0.793351 -1.539915,1.501244 -2.550781,2.023437 1.926498,-0.98644 3.456334,-2.813801 4.28125,-5.072266 z m -14.318359,1.373047 c 0.298169,0.535854 0.525925,1.129566 0.90625,1.585938 -0.03369,-0.04148 -0.08608,-0.05941 -0.119141,-0.101563 -0.34058,-0.434174 -0.519594,-0.988825 -0.787109,-1.484375 z m 1.5,2.091797 c 0.62965,0.63239 1.277366,1.250004 2.050781,1.638672 -0.789716,-0.392621 -1.431157,-0.999628 -2.050781,-1.638672 z m 2.740234,1.806641 c 0.809552,0.314346 1.635679,0.605469 2.537109,0.605469 0.37195,0 0.686797,-0.193775 1.044922,-0.25 -0.366962,0.05863 -0.647401,0.261718 -1.044922,0.261718 -0.942699,0 -1.739917,-0.313376 -2.537109,-0.617187 z"
             id="path90" />
          <path
             style="-inkscape-font-specification:'linja pona 4.9, Normal';stroke-linecap:round;stroke-linejoin:round;paint-order:stroke fill markers"
             d="m 49.756838,58.987623 c 2.764477,0 4.855258,-1.417084 6.249112,-3.043247 1.463546,-1.719087 2.532168,-4.204793 2.532168,-7.22481 h -1.138314 c 0,5.017874 -3.438173,9.106512 -7.642966,9.106512 -4.204793,0 -7.666197,-4.088638 -7.666197,-9.106512 h -1.138314 c 0,5.017874 3.36848,10.268057 8.804511,10.268057 z"
             id="path91" />
        </g>
        <g
           id="path67"
           transform="translate(-9.9627422,0.63602921)">
          <path
             style="-inkscape-font-specification:'linja pona 4.9, Normal';stroke-linecap:round;stroke-linejoin:round;paint-order:stroke fill markers"
             d="m 37.863281,41.267578 c -2.756863,0 -5.035156,2.278293 -5.035156,5.035156 v 13.56836 c 0,2.773481 2.265291,5.011718 5.035156,5.011718 h 3.390625 a 0.57505749,0.57505749 0 0 0 0.576172,-0.576171 v -1.160157 a 0.57505749,0.57505749 0 0 0 -0.576172,-0.576172 h -3.390625 c -1.502394,0 -2.724609,-1.201738 -2.724609,-2.699218 v -13.56836 c 0,-1.49748 1.222215,-2.699218 2.724609,-2.699218 h 3.390625 a 0.57505749,0.57505749 0 0 0 0.576172,-0.576172 V 41.84375 a 0.57505749,0.57505749 0 0 0 -0.576172,-0.576172 z m 0,1.150391 h 2.816406 v 0.03516 h -2.816406 c -2.121625,0 -3.875,1.723069 -3.875,3.849609 v 13.56836 c 0,2.12654 1.753375,3.849609 3.875,3.849609 h 2.816406 v 0.01172 h -2.816406 c -2.155085,0 -3.886719,-1.70986 -3.886719,-3.861328 v -13.56836 c 0,-2.121625 1.765094,-3.884765 3.886719,-3.884765 z"
             id="path92" />
          <path
             style="-inkscape-font-specification:'linja pona 4.9, Normal';stroke-linecap:round;stroke-linejoin:round;paint-order:stroke fill markers"
             d="m 41.254347,64.3075 v -1.161545 h -3.391712 c -1.81201,0 -3.298788,-1.463547 -3.298788,-3.275557 V 46.303552 c 0,-1.81201 1.486778,-3.275557 3.298788,-3.275557 h 3.391712 v -1.184776 h -3.391712 c -2.439244,0 -4.460332,2.021089 -4.460332,4.460333 v 13.566846 c 0,2.462475 1.997857,4.437102 4.460332,4.437102 z"
             id="path93" />
        </g>
        <g
           id="text2"
           transform="matrix(0.6874618,0,0,0.6874618,-0.21484677,20.159289)">
          <path
             style="-inkscape-font-specification:'linja pona 4.9, Normal';stroke-linecap:round;stroke-linejoin:round;paint-order:stroke fill markers"
             d="m 16.955078,44.660156 c -2.489556,0 -4.546875,1.997002 -4.546875,4.455078 0,1.544715 0.890896,2.832544 2.121094,3.63086 -0.237193,0.71622 -0.425781,1.452026 -0.425781,2.222656 0,4.205508 3.569589,7.498047 7.707031,7.498047 4.135118,0 7.683594,-3.27353 7.683594,-7.498047 0,-0.769997 -0.190918,-1.505012 -0.427735,-2.220703 1.231498,-0.798102 2.123047,-2.087114 2.123047,-3.632813 0,-2.458076 -2.057319,-4.455078 -4.546875,-4.455078 -2.489555,0 -4.548828,1.997002 -4.548828,4.455078 0,2.458077 2.063351,4.429688 4.548828,4.429688 0.09135,0 0.173264,-0.02003 0.261719,-0.02539 0.142812,0.470124 0.277344,0.945217 0.277344,1.449219 0,2.929231 -2.46523,5.185547 -5.371094,5.185547 -2.908642,0 -5.396485,-2.233512 -5.396485,-5.185547 0,-0.504002 0.134532,-0.979095 0.277344,-1.449219 0.08889,0.0054 0.171861,0.02539 0.263672,0.02539 2.485478,0 4.546875,-1.971611 4.546875,-4.429688 0,-2.458076 -2.057319,-4.455078 -4.546875,-4.455078 z m 0,1.150391 c 1.877854,0 3.396484,1.488278 3.396484,3.304687 0,1.81641 -1.514552,3.28125 -3.396484,3.28125 -0.220693,0 -0.411255,-0.01936 -0.607422,-0.05859 a 0.57505749,0.57505749 0 0 0 -0.648437,0.353515 c -0.280631,0.714333 -0.433594,1.482993 -0.433594,2.277344 0,0.89977 0.18935,1.745081 0.529297,2.507812 0.339352,0.761398 0.82994,1.439369 1.427734,2.00586 -0.598846,-0.568441 -1.086932,-1.247646 -1.427734,-2.00586 -0.344797,-0.767099 -0.541016,-1.611408 -0.541016,-2.507812 0,-0.761776 0.146844,-1.501965 0.423828,-2.205078 a 0.57505749,0.57505749 0 0 0 -0.273437,-0.722656 c -0.112748,-0.0574 -0.170422,-0.177512 -0.275391,-0.246094 0.536006,0.342473 1.141272,0.589844 1.826172,0.589844 1.853982,0 3.384766,-1.459316 3.384766,-3.269532 0,-1.810215 -1.525062,-3.292968 -3.384766,-3.292968 -1.859704,0 -3.386719,1.482753 -3.386719,3.292968 0,0.04928 0.02705,0.08994 0.0293,0.138672 -0.0024,-0.0501 -0.04101,-0.08806 -0.04101,-0.138672 0,-1.816409 1.520583,-3.304687 3.398437,-3.304687 z m 9.6875,0 c 1.877854,0 3.396484,1.488278 3.396484,3.304687 0,0.0493 -0.03874,0.08595 -0.04102,0.134766 0.0021,-0.04745 0.0293,-0.0868 0.0293,-0.134766 0,-1.810215 -1.525062,-3.292968 -3.384766,-3.292968 -1.859704,0 -3.386719,1.482753 -3.386719,3.292968 0,1.810216 1.532737,3.269532 3.386719,3.269532 0.68431,0 1.288494,-0.247912 1.824219,-0.589844 -0.104667,0.06833 -0.161043,0.188874 -0.273438,0.246094 a 0.57505749,0.57505749 0 0 0 -0.273437,0.722656 c 0.276984,0.703113 0.423828,1.443302 0.423828,2.205078 0,3.581065 -3.002125,6.347656 -6.533203,6.347656 -1.649029,0 -3.155685,-0.653273 -4.328125,-1.666015 1.17403,1.011175 2.68474,1.654296 4.328125,1.654296 3.505864,0 6.521484,-2.760516 6.521484,-6.335937 0,-0.794351 -0.154916,-1.563011 -0.435547,-2.277344 A 0.57505749,0.57505749 0 0 0 27.25,52.337891 c -0.196167,0.03923 -0.386729,0.05859 -0.607422,0.05859 -1.881931,0 -3.398437,-1.46484 -3.398437,-3.28125 0,-1.816409 1.520584,-3.304687 3.398437,-3.304687 z m -9.6875,1.160156 c 1.253236,0 2.236328,0.981191 2.236328,2.144531 0,1.163341 -0.97737,2.119141 -2.236328,2.119141 -1.258958,0 -2.236328,-0.9558 -2.236328,-2.119141 0,-1.16334 0.983092,-2.144531 2.236328,-2.144531 z m 9.6875,0 c 1.253236,0 2.236328,0.981191 2.236328,2.144531 0,1.163341 -0.97737,2.119141 -2.236328,2.119141 -1.258958,0 -2.236328,-0.9558 -2.236328,-2.119141 0,-1.16334 0.983092,-2.144531 2.236328,-2.144531 z m -12.636719,3.65625 c 0.08392,0.151075 0.188405,0.28618 0.294922,0.421875 -0.110204,-0.140408 -0.208733,-0.265757 -0.294922,-0.421875 z m 15.583985,0.0059 c -0.08469,0.15279 -0.183276,0.274397 -0.291016,0.41211 0.104223,-0.133132 0.208494,-0.2642 0.291016,-0.41211 z"
             id="path94" />
          <path
             style="-inkscape-font-specification:'linja pona 4.9, Normal';stroke-linecap:round;stroke-linejoin:round;paint-order:stroke fill markers"
             d="m 26.642114,52.97082 c 0.25554,0 0.487849,-0.02323 0.720158,-0.06969 0.25554,0.650465 0.394925,1.347392 0.394925,2.06755 0,3.252326 -2.741246,5.761263 -5.94711,5.761263 -3.205864,0 -5.970341,-2.485706 -5.970341,-5.761263 0,-0.720158 0.139385,-1.417085 0.394925,-2.06755 0.232309,0.04646 0.464618,0.06969 0.720158,0.06969 2.183705,0 3.972484,-1.719086 3.972484,-3.856329 0,-2.137243 -1.788779,-3.87956 -3.972484,-3.87956 -2.183705,0 -3.972484,1.742317 -3.972484,3.87956 0,1.486778 0.882774,2.787708 2.160474,3.438173 -0.302002,0.76662 -0.464618,1.579701 -0.464618,2.416014 0,3.87956 3.298788,6.922808 7.131886,6.922808 3.833098,0 7.108655,-3.020017 7.108655,-6.922808 0,-0.836313 -0.162616,-1.649394 -0.464618,-2.416014 1.2777,-0.650465 2.160474,-1.951395 2.160474,-3.438173 0,-2.137243 -1.788779,-3.87956 -3.972484,-3.87956 -2.183704,0 -3.972484,1.742317 -3.972484,3.87956 0,2.137243 1.78878,3.856329 3.972484,3.856329 z m 0,-6.574344 c 1.55647,0 2.810939,1.231237 2.810939,2.718015 0,1.486778 -1.254469,2.694784 -2.810939,2.694784 -1.55647,0 -2.810939,-1.208006 -2.810939,-2.694784 0,-1.486778 1.254469,-2.718015 2.810939,-2.718015 z m -9.687285,0 c 1.55647,0 2.810939,1.231237 2.810939,2.718015 0,1.486778 -1.254469,2.694784 -2.810939,2.694784 -1.55647,0 -2.810939,-1.208006 -2.810939,-2.694784 0,-1.486778 1.254469,-2.718015 2.810939,-2.718015 z"
             id="path95" />
        </g>
      </g>
    </g>
  </g>
</svg>
