<?xml version="1.0" encoding="UTF-8" standalone="no"?>
<!-- Created with Inkscape (http://www.inkscape.org/) -->

<svg
   width="41.527035mm"
   height="41.074207mm"
   viewBox="0 0 41.527035 41.074207"
   version="1.1"
   id="svg1"
   xmlns="http://www.w3.org/2000/svg"
   xmlns:svg="http://www.w3.org/2000/svg">
  <defs
     id="defs1" />
  <g
     id="layer1"
     transform="translate(-153.33759,-99.058819)">
    <g
       id="g42"
       transform="translate(35.12925,146.75841)">
      <rect
         x="145.3513"
         y="-47.580708"
         fill="#119bcf"
         width="0.37745628"
         height="40.843513"
         id="rect1-0-3-35-76"
         style="stroke-width:0.135824" />
      <g
         id="g1177-0-9-6-5"
         transform="matrix(0.09584305,0,0,0.09584305,53.790365,-38.90346)">
        <g
           id="g1165-8-3-2-7">
          <g
             id="g1163-1-6-9-1">
            <g
               id="g71-0-0-1-3"
               transform="matrix(0.37331822,0,0,0.37331822,-37.620101,209.6563)">
              <g
                 id="g2-2-6-2-3">
                <path
                   id="path65_1_-2-2-7-3"
                   fill="#119bcf"
                   d="m 2990.923,-564.448 c 0,64.423 -52.226,116.64 -116.638,116.64 -64.419,0 -116.641,-52.217 -116.641,-116.64 0,-64.413 52.222,-116.636 116.641,-116.636 64.412,0 116.638,52.222 116.638,116.636" />
                <path
                   fill="#119bcf"
                   d="m 2874.285,-444.486 c -66.15,0 -119.967,-53.815 -119.967,-119.963 0,-66.146 53.817,-119.959 119.967,-119.959 66.146,0 119.959,53.813 119.959,119.959 0,66.149 -53.812,119.963 -119.959,119.963 z m 0,-233.275 c -62.484,0 -113.32,50.832 -113.32,113.312 0,62.482 50.836,113.316 113.32,113.316 62.484,0 113.312,-50.834 113.312,-113.316 0,-62.48 -50.828,-113.312 -113.312,-113.312 z"
                   id="path1-9-6-0-8" />
              </g>
              <g
                 id="g3-7-1-9-5">
                <path
                   id="path67_1_-5-8-3-1"
                   fill="#119bcf"
                   d="m 2681.195,-541.147 201.575,153.581 c 0,0 7.025,3.859 8.119,20.209 l 31.615,140.586 132.942,98.08 c 0,0 21.631,70.788 -51.437,63.74 l -137.083,-101.891 c 0,0 -8.4,-6.421 -14.176,-25.068 l -26.15,-113.333 -147.125,173.281 134.031,184.171 c 0,0 29.442,40.326 -3.251,74.109 l -136.23,132.956 V 120.873 l 31.6,-26.165 c 0,0 8.727,-6.536 0,-16.334 l -31.6,-39.236 v -579.772 l 7.17,-0.517" />
                <path
                   fill="#119bcf"
                   d="M 2670.7,267.16 V 119.309 l 32.804,-27.158 c 0.126,-0.096 2.406,-1.909 2.655,-4.678 0.189,-2.113 -0.827,-4.43 -3.014,-6.888 L 2670.7,40.31 v -584.035 l 10.258,-0.74 0.237,3.318 2.017,-2.643 201.431,153.474 c 1.635,1.031 8.389,6.235 9.546,22.478 l 31.288,139.129 132.827,97.994 0.319,1.053 c 0.415,1.361 9.998,33.564 -6.358,53.576 -9.613,11.766 -25.95,16.626 -48.574,14.443 l -0.923,-0.089 -0.741,-0.552 -137.083,-101.891 c -0.411,-0.315 -9.346,-7.31 -15.366,-26.747 l -24.727,-107.123 -141.149,166.245 132.49,182.054 c 0.311,0.423 30.695,42.992 -3.548,78.38 z m 6.647,-144.722 v 128.949 l 130.588,-127.444 c 30.328,-31.344 3.166,-69.39 2.888,-69.776 L 2677.347,-129.24 V 37.963 l 30.869,38.324 c 3.388,3.804 4.956,7.852 4.549,11.911 -0.56,5.587 -4.678,8.819 -5.146,9.172 z M 3005.24,-68.176 c 19.781,1.746 33.861,-2.321 41.865,-12.096 12.634,-15.436 6.862,-41.016 5.442,-46.428 l -133.012,-98.132 -0.271,-1.208 -31.689,-141.095 c -0.934,-13.932 -6.432,-17.527 -6.484,-17.563 l -0.337,-0.224 -200.578,-152.821 -2.829,0.202 v 402.953 l 151.003,-177.848 27.64,119.779 c 5.257,16.956 12.897,23.129 12.975,23.192 z"
                   id="path2-6-7-6-08" />
              </g>
              <g
                 id="g4-4-9-0-7">
                <path
                   id="path69_1_-6-2-6-6"
                   fill="#119bcf"
                   d="m 2658.945,337.199 h 21.083 V -804.119 h -21.083 z" />
                <path
                   fill="#119bcf"
                   d="m 2683.353,340.525 h -27.729 V -807.442 h 27.729 z m -21.083,-6.647 h 14.436 V -800.795 h -14.436 z"
                   id="path3-3-0-2-3" />
              </g>
            </g>
          </g>
        </g>
      </g>
      <g
         id="path75-1-5"
         transform="translate(12.347092,-80.545113)">
        <path
           style="-inkscape-font-specification:'linja pona 4.9, Normal';stroke-linecap:round;stroke-linejoin:round;paint-order:stroke fill markers"
           d="m 126.88086,41.550781 a 0.83002802,0.83002802 0 0 0 -0.83008,0.830078 v 22.365235 a 0.83002802,0.83002802 0 0 0 0.83008,0.830078 h 1.67578 a 0.83002802,0.83002802 0 0 0 0.83008,-0.830078 V 42.380859 a 0.83002802,0.83002802 0 0 0 -0.83008,-0.830078 z m 0.83008,1.660156 h 0.0156 v 20.705079 h -0.0156 z"
           id="path76-8-0" />
        <path
           style="-inkscape-font-specification:'linja pona 4.9, Normal';stroke-linecap:round;stroke-linejoin:round;paint-order:stroke fill markers"
           d="M 128.55688,64.745871 V 42.380545 h -1.67657 v 22.365326 z"
           id="path77-7-8" />
      </g>
      <g
         id="path74-9-0"
         transform="translate(12.347092,-80.545113)">
        <path
           style="-inkscape-font-specification:'linja pona 4.9, Normal';stroke-linecap:round;stroke-linejoin:round;paint-order:stroke fill markers"
           d="m 117.12305,41.550781 a 0.83002802,0.83002802 0 0 0 -0.83008,0.830078 v 22.365235 a 0.83002802,0.83002802 0 0 0 0.83008,0.830078 h 1.67578 a 0.83002802,0.83002802 0 0 0 0.83008,-0.830078 V 42.380859 a 0.83002802,0.83002802 0 0 0 -0.83008,-0.830078 z m 0.83008,1.660156 h 0.0156 v 20.705079 h -0.0156 z"
           id="path78-2-4" />
        <path
           style="-inkscape-font-specification:'linja pona 4.9, Normal';stroke-linecap:round;stroke-linejoin:round;paint-order:stroke fill markers"
           d="M 118.79929,64.745871 V 42.380545 h -1.67657 v 22.365326 z"
           id="path79-0-1" />
      </g>
      <g
         id="path73-2-1"
         transform="translate(12.287385,-80.425408)">
        <path
           style="-inkscape-font-specification:'linja pona 4.9, Normal';stroke-width:0.692546;stroke-linecap:round;stroke-linejoin:round;paint-order:stroke fill markers"
           d="m 108.17985,41.992187 a 0.26918488,0.26918488 0 0 0 -0.26918,0.269173 v 1.502771 h -1.72054 a 0.26918488,0.26918488 0 0 0 -0.26917,0.269173 v 0.543756 a 0.26918488,0.26918488 0 0 0 0.26917,0.269174 h 1.72054 v 1.865275 h -1.72054 a 0.26918488,0.26918488 0 0 0 -0.26917,0.269173 v 0.543757 a 0.26918488,0.26918488 0 0 0 0.26917,0.269173 h 1.72054 v 1.720544 a 0.26918488,0.26918488 0 0 0 0.26918,0.269172 h 0.54376 a 0.26918488,0.26918488 0 0 0 0.26917,-0.269172 v -1.720544 h 2.08305 v 1.720544 a 0.26918488,0.26918488 0 0 0 0.26917,0.269172 h 0.54375 a 0.26918488,0.26918488 0 0 0 0.26918,-0.269172 v -1.720544 h 1.73137 a 0.26918488,0.26918488 0 0 0 0.26917,-0.269173 v -0.543757 a 0.26918488,0.26918488 0 0 0 -0.26917,-0.269173 h -1.73137 v -1.865275 h 1.73137 a 0.26918488,0.26918488 0 0 0 0.26917,-0.269174 v -0.543756 a 0.26918488,0.26918488 0 0 0 -0.26917,-0.269173 h -1.73137 V 42.26136 a 0.26918488,0.26918488 0 0 0 -0.26918,-0.269173 H 111.345 a 0.26918488,0.26918488 0 0 0 -0.26917,0.269173 v 1.502771 h -2.08305 V 42.26136 a 0.26918488,0.26918488 0 0 0 -0.26917,-0.269173 z m 0.26917,0.538346 h 0.006 v 1.502771 a 0.26918488,0.26918488 0 0 0 0.26917,0.269173 h 2.62139 a 0.26918488,0.26918488 0 0 0 0.26918,-0.269173 v -1.502771 h 0.006 v 1.502771 a 0.26918488,0.26918488 0 0 0 0.26917,0.269173 h 1.73136 v 0.0054 h -1.73136 a 0.26918488,0.26918488 0 0 0 -0.26917,0.269173 v 2.403621 a 0.26918488,0.26918488 0 0 0 0.26917,0.269173 h 1.73136 v 0.0054 h -1.73136 a 0.26918488,0.26918488 0 0 0 -0.26917,0.269173 v 1.720544 h -0.006 v -1.720544 a 0.26918488,0.26918488 0 0 0 -0.26918,-0.269173 h -2.62139 a 0.26918488,0.26918488 0 0 0 -0.26917,0.269173 v 1.720544 h -0.006 v -1.720544 a 0.26918488,0.26918488 0 0 0 -0.26917,-0.269173 h -1.72054 v -0.0054 h 1.72054 a 0.26918488,0.26918488 0 0 0 0.26917,-0.269173 V 44.57705 a 0.26918488,0.26918488 0 0 0 -0.26917,-0.269173 h -1.72054 v -0.0054 h 1.72054 a 0.26918488,0.26918488 0 0 0 0.26917,-0.269173 z m 0.27459,1.777354 a 0.26918488,0.26918488 0 0 0 -0.26918,0.269173 v 2.403622 a 0.26918488,0.26918488 0 0 0 0.26918,0.269173 h 2.62139 a 0.26918488,0.26918488 0 0 0 0.26917,-0.269173 V 44.57706 A 0.26918488,0.26918488 0 0 0 111.345,44.307887 Z m 0.26917,0.538347 h 2.08305 v 1.865275 h -2.08305 z"
           id="path80-3-3" />
        <path
           style="-inkscape-font-specification:'linja pona 4.9, Normal';stroke-width:0.692546;stroke-linecap:round;stroke-linejoin:round;paint-order:stroke fill markers"
           d="m 113.88917,46.980643 h -2.0009 v -2.403248 h 2.0009 v -0.543721 h -2.0009 v -1.772531 h -0.54372 v 1.772531 h -2.62074 v -1.772531 h -0.54371 v 1.772531 h -1.99003 v 0.543721 h 1.99003 v 2.403248 h -1.99003 v 0.54372 h 1.99003 v 1.99002 h 0.54371 v -1.99002 h 2.62074 v 1.99002 h 0.54372 v -1.99002 h 2.0009 z m -5.16536,-2.403248 h 2.62074 v 2.403248 h -2.62074 z"
           id="path81-7-5" />
      </g>
    </g>
  </g>
</svg>
