<?xml version="1.0" encoding="UTF-8" standalone="no"?>
<!-- Created with Inkscape (http://www.inkscape.org/) -->

<svg
   width="135.82452mm"
   height="41.074215mm"
   viewBox="0 0 135.82452 41.074215"
   version="1.1"
   id="svg1"
   xmlns="http://www.w3.org/2000/svg"
   xmlns:svg="http://www.w3.org/2000/svg">
  <defs
     id="defs1" />
  <g
     id="layer1"
     transform="translate(-9.8958096,-10.23143)">
    <g
       id="g5"
       transform="matrix(0.72189658,0,0,0.72189658,5.3340596,2.8453953)">
      <rect
         x="174.54324"
         y="10.396127"
         fill="#119bcf"
         width="0.5228675"
         height="56.578068"
         id="rect1"
         style="stroke-width:0.188149" />
      <path
         id="path21"
         d="m 25.462204,34.191772 c 0,1.144514 -0.19831,2.22261 -0.594177,3.238618 -0.396243,1.013749 -0.974991,1.906895 -1.736432,2.674733 -0.762946,0.771037 -1.697673,1.374621 -2.806626,1.818277 -1.109142,0.443845 -2.334748,0.66398 -3.675313,0.66398 H 11.530108 V 52.722054 H 6.3191179 V 25.809335 H 16.650221 c 1.340941,0 2.559398,0.216559 3.657062,0.646293 1.097476,0.431427 2.032956,1.034258 2.80625,1.80887 0.773106,0.776305 1.358816,1.66738 1.755247,2.678308 0.395866,1.008105 0.593424,2.091094 0.593424,3.248966 z m -5.210801,0 c 0,-0.715533 -0.161245,-1.353736 -0.483921,-1.920066 -0.323429,-0.566518 -0.777622,-1.002837 -1.362955,-1.31159 -0.584393,-0.308377 -1.255146,-0.461343 -2.010754,-0.461343 h -4.863854 v 7.365678 h 4.863854 c 0.755608,0 1.426361,-0.151273 2.010754,-0.452124 0.585333,-0.301227 1.039338,-0.729644 1.362955,-1.283932 0.322676,-0.553536 0.483921,-1.198325 0.483921,-1.936623 z"
         style="stroke-width:0.188149" />
      <path
         id="path23"
         d="m 48.628302,39.266917 c 0,1.488451 -0.01524,2.663257 -0.0461,3.525922 -0.03048,0.860972 -0.130952,1.744899 -0.301604,2.648957 -0.170651,0.904435 -0.435565,1.729283 -0.795119,2.473226 -0.360495,0.746201 -0.862854,1.444236 -1.508772,2.095045 -1.962964,1.956191 -4.363751,2.934944 -7.203492,2.934944 -1.476221,0 -2.800982,-0.245723 -3.977669,-0.737358 -1.175935,-0.492764 -2.257794,-1.224477 -3.245015,-2.197586 -0.829363,-0.86116 -1.429184,-1.811692 -1.801531,-2.851594 -0.371408,-1.040656 -0.600197,-2.122891 -0.685994,-3.248778 -0.08542,-1.124758 -0.127753,-2.672664 -0.127753,-4.642213 0,-1.969173 0.04233,-3.515762 0.127753,-4.641837 0.0858,-1.127392 0.313834,-2.209064 0.685994,-3.250095 0.371406,-1.038962 0.971791,-1.988929 1.801531,-2.852159 0.987409,-0.972545 2.06908,-1.703694 3.245015,-2.194576 1.176687,-0.492763 2.501448,-0.739051 3.977669,-0.739051 2.839552,0 5.241281,0.978566 7.203492,2.933627 0.817134,0.849495 1.420718,1.797393 1.810375,2.84294 0.390223,1.047804 0.627667,2.132862 0.712334,3.259314 0.08599,1.125322 0.128883,2.672288 0.128883,4.641272 z m -5.210613,0.0096 c 0,-1.672085 -0.04046,-3.000797 -0.118534,-3.982938 C 43.219375,34.309934 43.091814,33.572764 42.914953,33.08 42.738281,32.58893 42.473554,32.133232 42.120021,31.715916 41.7663,31.285054 41.294045,30.938294 40.703067,30.67338 40.111525,30.40903 39.46843,30.277137 38.774159,30.277137 c -0.658148,0 -1.286567,0.128882 -1.883377,0.3874 -0.596811,0.258706 -1.090703,0.608288 -1.480549,1.051192 -0.353533,0.417315 -0.616378,0.870003 -0.786841,1.354864 -0.170652,0.485049 -0.292385,1.224289 -0.364822,2.213014 -0.07319,0.989103 -0.110444,2.320825 -0.110444,3.992534 0,1.672837 0.03726,3.000796 0.110444,3.983313 0.07244,0.983834 0.19417,1.72138 0.364822,2.213391 0.170275,0.491447 0.433308,0.946016 0.786841,1.363896 0.816193,0.946769 1.938128,1.420717 3.363737,1.420717 1.41338,0 2.528354,-0.473948 3.345863,-1.420717 0.353534,-0.417504 0.618072,-0.876212 0.794932,-1.37368 0.17686,-0.497278 0.304614,-1.230121 0.384201,-2.203607 0.07808,-0.971792 0.118723,-2.299187 0.118723,-3.982937 z"
         style="stroke-width:0.188149" />
      <path
         id="path25"
         d="m 74.134606,52.723747 h -6.05127 L 62.882509,41.998472 H 59.159971 V 52.723747 H 53.949358 V 25.809335 h 10.440417 c 1.766348,0 3.302591,0.367832 4.607031,1.099733 1.3035,0.732842 2.30445,1.727966 2.99891,2.984804 0.69446,1.256275 1.04216,2.641243 1.04216,4.156036 0,1.786291 -0.45268,3.280762 -1.35862,4.480968 -0.90425,1.200771 -2.07906,2.067952 -3.52216,2.596087 z m -6.30828,-18.680613 c 0,-0.689756 -0.15522,-1.298608 -0.46586,-1.82712 -0.31026,-0.529265 -0.7541,-0.947333 -1.331908,-1.256086 -0.577619,-0.308189 -1.237836,-0.461155 -1.979521,-0.461155 h -4.889818 v 7.106972 h 4.889818 c 1.13059,0 2.042739,-0.325498 2.736069,-0.978189 0.69559,-0.652315 1.04122,-1.513663 1.04122,-2.584422 z"
         style="stroke-width:0.188149" />
      <path
         id="path27"
         d="m 95.581586,30.498961 h -6.96568 v 22.224786 h -5.21155 V 30.498961 h -6.96624 v -4.689626 h 19.14309 z"
         style="stroke-width:0.188149" />
      <path
         id="path29"
         d="m 119.03762,52.723747 h -5.43018 l -1.57331,-4.762629 h -9.47126 l -1.60924,4.762629 H 95.523436 L 105.23177,25.80877 h 4.07814 z m -8.37454,-9.192421 -3.27342,-9.782834 -3.36185,9.782834 z"
         style="stroke-width:0.188149" />
      <path
         id="path31"
         d="M 140.32071,52.723747 H 123.02507 V 25.809335 h 5.21118 V 48.03619 h 12.0856 v 4.688874 h -0.001 v -0.0014 z"
         style="stroke-width:0.188149" />
      <g
         id="g40"
         transform="matrix(0.04978123,0,0,0.04978123,35.067931,47.328163)">
        <path
           id="path36"
           d="m 2069.413,-424.421 h -10.22 v 32.434 h -10.209 v -32.434 h -10.231 v -9.089 h 30.65 z" />
        <path
           id="path38"
           d="m 2114.069,-391.987 h -10.198 v -19.866 l -5.902,10.239 h -6.507 l -5.898,-10.239 v 19.866 h -10.202 v -41.523 h 10.006 l 9.32,18.322 9.349,-18.322 h 10.025 z" />
      </g>
      <g
         id="g48"
         transform="matrix(0.04978123,0,0,0.04978123,35.067931,47.328163)">
        <g
           id="g46">
          <path
             id="path42"
             d="m 2285.123,104.206 0.369,-80.795 211.901,-205.398 0.225,-0.175 c 21.404,-17.798 37.327,-33.811 47.333,-47.634 9.405,-13 14.177,-26.435 14.177,-39.956 0,-19.387 -6.186,-34.442 -18.898,-46.024 -12.741,-11.604 -29.934,-17.484 -51.072,-17.484 -20.374,0 -37.087,5.664 -51.083,17.29 -13.579,11.276 -20.182,28.053 -20.182,51.278 v 7.445 h -131.87 v -7.445 c 0,-37.011 9.047,-69.967 26.903,-97.96 17.82,-27.942 42.59,-49.673 73.638,-64.581 30.779,-14.773 65.289,-22.253 102.601,-22.253 28.236,0 54.844,4.11 79.104,12.213 24.408,8.155 46.022,20.136 64.248,35.595 18.366,15.581 32.853,34.771 43.062,57.036 10.246,22.242 15.421,46.864 15.421,73.186 0,22.232 -5.09,43.225 -15.148,62.373 -9.829,18.717 -23.434,37.063 -40.416,54.51 -16.683,17.152 -37.363,36.138 -61.447,56.442 l -100.73,86.117 h 229.592 V 104.218 H 2285.12 v -0.012 z" />
          <path
             id="path44"
             d="m 2489.173,-442.04 c 27.568,0 53.157,3.953 76.746,11.833 23.6,7.888 44.199,19.276 61.79,34.213 17.591,14.919 31.307,33.056 41.114,54.465 9.822,21.389 14.742,44.76 14.742,70.082 0,21.114 -4.765,40.768 -14.295,58.919 -9.526,18.158 -22.566,35.752 -39.146,52.79 -16.558,17.023 -36.862,35.669 -60.904,55.936 l -116.107,99.236 h 242.303 V 96.776 h -402.815 l 0.325,-70.202 209.45,-203 c 21.99,-18.292 38.19,-34.628 48.595,-48.992 10.405,-14.352 15.613,-29.129 15.613,-44.325 0,-21.407 -7.109,-38.572 -21.326,-51.533 -14.218,-12.931 -32.92,-19.429 -56.084,-19.429 -21.972,0 -40.597,6.335 -55.844,19.012 -15.247,12.673 -22.865,31.672 -22.865,57.001 h -116.977 c 0,-35.756 8.585,-67.059 25.741,-93.964 17.145,-26.885 40.682,-47.501 70.575,-61.864 29.898,-14.35 63.028,-21.52 99.369,-21.52 m 0,-14.889 c -38.427,0 -74.033,7.738 -105.827,22.993 -32.311,15.515 -58.11,38.157 -76.69,67.286 -18.628,29.216 -28.059,63.521 -28.059,101.964 v 14.889 h 14.889 116.977 14.885 v -14.889 c 0,-20.869 5.721,-35.769 17.488,-45.552 12.616,-10.475 27.763,-15.578 46.329,-15.578 19.496,0 34.566,5.086 46.07,15.556 11.062,10.089 16.447,23.343 16.447,40.517 0,12.084 -4.182,23.716 -12.785,35.584 -9.63,13.315 -25.128,28.88 -46.048,46.277 l -0.439,0.362 -0.406,0.388 -209.443,203.014 -4.499,4.359 -0.033,6.275 -0.317,70.194 -0.074,14.967 h 14.963 402.834 14.889 V 96.787 -4.551 -19.44 h -14.889 -201.976 l 85.442,-73.025 c 24.194,-20.393 45.048,-39.567 61.908,-56.881 17.477,-17.975 31.506,-36.902 41.664,-56.254 10.626,-20.221 16.008,-42.368 16.008,-65.837 0,-27.396 -5.415,-53.063 -16.1,-76.303 -10.648,-23.26 -25.803,-43.317 -45.004,-59.601 -18.931,-16.081 -41.394,-28.522 -66.703,-36.974 -25.059,-8.371 -52.468,-12.614 -81.501,-12.614 z" />
        </g>
      </g>
      <g
         id="g1177"
         transform="matrix(0.13276563,0,0,0.13276563,47.709411,22.416195)">
        <g
           id="g1165">
          <g
             id="g1163">
            <g
               id="g71"
               transform="matrix(0.37331822,0,0,0.37331822,-37.620101,209.6563)">
              <g
                 id="g2">
                <path
                   id="path65_1_"
                   fill="#119bcf"
                   d="m 2990.923,-564.448 c 0,64.423 -52.226,116.64 -116.638,116.64 -64.419,0 -116.641,-52.217 -116.641,-116.64 0,-64.413 52.222,-116.636 116.641,-116.636 64.412,0 116.638,52.222 116.638,116.636" />
                <path
                   fill="#119bcf"
                   d="m 2874.285,-444.486 c -66.15,0 -119.967,-53.815 -119.967,-119.963 0,-66.146 53.817,-119.959 119.967,-119.959 66.146,0 119.959,53.813 119.959,119.959 0,66.149 -53.812,119.963 -119.959,119.963 z m 0,-233.275 c -62.484,0 -113.32,50.832 -113.32,113.312 0,62.482 50.836,113.316 113.32,113.316 62.484,0 113.312,-50.834 113.312,-113.316 0,-62.48 -50.828,-113.312 -113.312,-113.312 z"
                   id="path1" />
              </g>
              <g
                 id="g3">
                <path
                   id="path67_1_"
                   fill="#119bcf"
                   d="m 2681.195,-541.147 201.575,153.581 c 0,0 7.025,3.859 8.119,20.209 l 31.615,140.586 132.942,98.08 c 0,0 21.631,70.788 -51.437,63.74 l -137.083,-101.891 c 0,0 -8.4,-6.421 -14.176,-25.068 l -26.15,-113.333 -147.125,173.281 134.031,184.171 c 0,0 29.442,40.326 -3.251,74.109 l -136.23,132.956 V 120.873 l 31.6,-26.165 c 0,0 8.727,-6.536 0,-16.334 l -31.6,-39.236 v -579.772 l 7.17,-0.517" />
                <path
                   fill="#119bcf"
                   d="M 2670.7,267.16 V 119.309 l 32.804,-27.158 c 0.126,-0.096 2.406,-1.909 2.655,-4.678 0.189,-2.113 -0.827,-4.43 -3.014,-6.888 L 2670.7,40.31 v -584.035 l 10.258,-0.74 0.237,3.318 2.017,-2.643 201.431,153.474 c 1.635,1.031 8.389,6.235 9.546,22.478 l 31.288,139.129 132.827,97.994 0.319,1.053 c 0.415,1.361 9.998,33.564 -6.358,53.576 -9.613,11.766 -25.95,16.626 -48.574,14.443 l -0.923,-0.089 -0.741,-0.552 -137.083,-101.891 c -0.411,-0.315 -9.346,-7.31 -15.366,-26.747 l -24.727,-107.123 -141.149,166.245 132.49,182.054 c 0.311,0.423 30.695,42.992 -3.548,78.38 z m 6.647,-144.722 v 128.949 l 130.588,-127.444 c 30.328,-31.344 3.166,-69.39 2.888,-69.776 L 2677.347,-129.24 V 37.963 l 30.869,38.324 c 3.388,3.804 4.956,7.852 4.549,11.911 -0.56,5.587 -4.678,8.819 -5.146,9.172 z M 3005.24,-68.176 c 19.781,1.746 33.861,-2.321 41.865,-12.096 12.634,-15.436 6.862,-41.016 5.442,-46.428 l -133.012,-98.132 -0.271,-1.208 -31.689,-141.095 c -0.934,-13.932 -6.432,-17.527 -6.484,-17.563 l -0.337,-0.224 -200.578,-152.821 -2.829,0.202 v 402.953 l 151.003,-177.848 27.64,119.779 c 5.257,16.956 12.897,23.129 12.975,23.192 z"
                   id="path2" />
              </g>
              <g
                 id="g4">
                <path
                   id="path69_1_"
                   fill="#119bcf"
                   d="m 2658.945,337.199 h 21.083 V -804.119 h -21.083 z" />
                <path
                   fill="#119bcf"
                   d="m 2683.353,340.525 h -27.729 V -807.442 h 27.729 z m -21.083,-6.647 h 14.436 V -800.795 h -14.436 z"
                   id="path3" />
              </g>
            </g>
          </g>
        </g>
      </g>
    </g>
  </g>
</svg>
